<svg width="550" height="550" version="1.1" viewBox="0 0 550 550" xmlns="http://www.w3.org/2000/svg">
 <rect width="550" height="550" fill="#c00"/>
 <g transform="translate(18 -824)" fill="#ffd700">
  <path d="m157.54 922.36-118.8 118.79 62.228 62.225 56.571-56.568 299.83 299.81a32.001 32 0 0 0 45.256 0 32.001 32 0 0 0 0-45.254l-299.83-299.81 16.972-16.971 50.914-50.91z" style="paint-order:markers fill stroke"/>
  <path d="m255.99 844s168.01 128 168.01 256c1e-5 64-56.003 136-152.01 136-64.003 0-104.24-47.764-104.24-47.764l-11.313 11.312a16.001 16 0 0 0-22.628 0 16.001 16 0 0 0-2.4786 3.2227 32.001 32 0 0 0-31.464 8.0918 32.001 32 0 0 0-9.3305 21.545c-25.432 13.752-67.565 40.575-86.27 75.592l0.029298 0.029a32.001 32 0 0 0-0.029298 31.971 32.001 32 0 0 0 43.715 11.713c35.026-18.708 61.855-60.852 75.605-86.281a32.001 32 0 0 0 21.536-9.3144 32.001 32 0 0 0 7.932-13.201c24.516 23.054 71.445 57.084 134.94 57.084 96.005 0 200.01-72 200.01-200 0-160-232.01-256-232.01-256z" style="paint-order:markers fill stroke"/>
 </g>
</svg>
